HIERARCHY
ROOT root
{
	OFFSET 0.000000 0.000000 0.000000
	CHANNELS 6 Xposition Yposition Zposition Zrotation Yrotation Xrotation
	JOINT lhip
	{
		OFFSET 0.058581 -0.082280 -0.017664
		CHANNELS 3 Zrotation Yrotation Xrotation
		JOINT lknee
		{
			OFFSET 0.043451 -0.386469 0.008037
			CHANNELS 3 Zrotation Yrotation Xrotation
			JOINT lankle
			{
				OFFSET -0.014790 -0.426874 -0.037428
				CHANNELS 3 Zrotation Yrotation Xrotation
				JOINT ltoe
				{
					OFFSET 0.041054 -0.060286 0.122042
					CHANNELS 3 Zrotation Yrotation Xrotation
					End Site
					{
						OFFSET 0.000000 0.000000 0.000000
					}
				}
			}
		}
	}
	JOINT rhip
	{
		OFFSET -0.060310 -0.090513 -0.013543
		CHANNELS 3 Zrotation Yrotation Xrotation
		JOINT rknee
		{
			OFFSET -0.043257 -0.383688 -0.004843
			CHANNELS 3 Zrotation Yrotation Xrotation
			JOINT rankle
			{
				OFFSET 0.019056 -0.420046 -0.034562
				CHANNELS 3 Zrotation Yrotation Xrotation
				JOINT rtoe
				{
					OFFSET -0.034840 -0.062106 0.130323
					CHANNELS 3 Zrotation Yrotation Xrotation
					End Site
					{
						OFFSET 0.000000 0.000000 0.000000
					}
				}
			}
		}
	}
	JOINT lowerback
	{
		OFFSET 0.004439 0.124404 -0.038385
		CHANNELS 3 Zrotation Yrotation Xrotation
		JOINT upperback
		{
			OFFSET 0.004488 0.137956 0.026820
			CHANNELS 3 Zrotation Yrotation Xrotation
			JOINT chest
			{
				OFFSET -0.002265 0.056032 0.002855
				CHANNELS 3 Zrotation Yrotation Xrotation
				JOINT lowerneck
				{
					OFFSET -0.013390 0.211636 -0.033468
					CHANNELS 3 Zrotation Yrotation Xrotation
					JOINT upperneck
					{
						OFFSET 0.010113 0.088937 0.050410
						CHANNELS 3 Zrotation Yrotation Xrotation
						End Site
						{
							OFFSET 0.000000 0.000000 0.000000
						}
					}
				}
				JOINT lclavicle
				{
					OFFSET 0.071702 0.114000 -0.018898
					CHANNELS 3 Zrotation Yrotation Xrotation
					JOINT lshoulder
					{
						OFFSET 0.122921 0.045205 -0.019046
						CHANNELS 3 Zrotation Yrotation Xrotation
						JOINT lelbow
						{
							OFFSET 0.255332 -0.015649 -0.022946
							CHANNELS 3 Zrotation Yrotation Xrotation
							JOINT lwrist
							{
								OFFSET 0.265709 0.012698 -0.007375
								CHANNELS 3 Zrotation Yrotation Xrotation
								End Site
								{
									OFFSET 0.000000 0.000000 0.000000
								}
							}
						}
					}
				}
				JOINT rclavicle
				{
					OFFSET -0.082954 0.112472 -0.023707
					CHANNELS 3 Zrotation Yrotation Xrotation
					JOINT rshoulder
					{
						OFFSET -0.113228 0.046853 -0.008472
						CHANNELS 3 Zrotation Yrotation Xrotation
						JOINT relbow
						{
							OFFSET -0.260127 -0.014369 -0.031269
							CHANNELS 3 Zrotation Yrotation Xrotation
							JOINT rwrist
							{
								OFFSET -0.269108 0.006794 -0.006027
								CHANNELS 3 Zrotation Yrotation Xrotation
								End Site
								{
									OFFSET 0.000000 0.000000 0.000000
								}
							}
						}
					}
				}
			}
		}
	}
}
MOTION
Frames: 15
Frame Time: 0.033333
-0.035488 0.080603 0.719166 6.163510 4.362844 96.189334 1.867031 -2.575537 14.100709 -26.127174 -14.989556 66.980579 -2.021028 3.231990 -29.324562 0.000000 -0.000000 0.000000 -17.966607 10.670447 -84.453716 -5.938610 -29.584813 99.531588 1.988026 -4.440328 -30.471960 0.000000 -0.000000 0.000000 1.751201 -11.646069 34.803769 -0.132619 8.243720 -16.956974 0.841391 -2.536771 2.847851 -6.884450 5.084378 -3.248443 -10.823786 -2.698096 -4.948102 -20.159417 -9.939271 -4.489836 -24.977144 -16.404395 -5.055610 21.053953 -4.143006 -51.289679 -5.114754 3.224118 -16.297589 17.702686 12.472607 -5.218803 25.367977 9.438035 6.357532 -4.068887 16.235785 -22.928209 8.706273 2.314505 -30.471293 
-0.032773 0.077467 0.706987 6.919691 4.450709 95.533003 2.275861 -2.074825 14.878540 -26.925395 -15.156082 69.038799 -3.058745 4.000252 -30.220272 0.000000 -0.000000 0.000000 -18.289434 9.889638 -84.872383 -6.577504 -29.842686 102.200793 2.120213 -4.787812 -31.784412 0.000000 -0.000000 0.000000 1.946817 -11.884783 36.312071 -0.377803 8.346712 -18.490830 0.806187 -2.378430 3.854283 -7.418015 4.919004 -2.519348 -10.622554 -3.193552 -5.401631 -19.813029 -8.338085 -5.814869 -21.725476 -15.276394 -8.082587 20.848142 -1.631917 -53.830891 1.001537 3.954385 -12.950620 17.465084 10.112552 -6.488926 23.086686 6.183673 4.002479 -3.953998 11.816356 -24.631885 3.867995 -0.137870 -27.295235 
-0.029845 0.074012 0.696484 7.469286 4.377846 95.175785 2.746186 -1.461812 15.322573 -27.966675 -15.404495 70.729312 -3.090799 4.117638 -30.210202 0.000000 -0.000000 0.000000 -18.525953 9.131466 -85.390375 -6.645387 -29.825198 104.381236 1.923136 -5.102853 -32.774456 0.000000 -0.000000 0.000000 2.003035 -11.987447 36.732801 -0.500690 8.336077 -19.227424 0.728048 -2.270310 4.409047 -7.985657 4.644809 -1.251155 -10.579221 -3.500721 -5.974536 -18.722307 -6.694314 -6.745750 -19.190274 -14.175041 -10.610036 20.506747 -0.015232 -56.142226 7.717665 4.232300 -9.878948 16.670757 7.752283 -7.473476 21.407323 3.454081 1.448571 -4.175373 8.272604 -27.796766 -1.075642 -1.939343 -24.461357 
-0.027076 0.070047 0.688617 7.884369 4.212106 94.543729 3.316247 -1.152192 16.047713 -29.669597 -15.959196 71.969983 -3.392593 3.506780 -29.846842 0.000000 -0.000000 0.000000 -18.670292 8.732496 -85.328783 -7.102050 -30.168911 106.465480 1.936573 -5.803711 -33.584368 0.000000 -0.000000 0.000000 1.782140 -12.189964 37.462806 -0.757441 8.249346 -20.574930 0.422675 -2.106573 5.685160 -8.317440 4.510513 -1.300897 -10.090303 -4.027344 -5.377807 -16.973600 -4.896031 -8.810384 -17.393109 -14.030250 -12.151264 20.492749 2.178329 -57.267705 17.172564 3.233594 -4.103298 15.973693 5.792419 -9.073780 19.650493 0.927991 -0.456427 -4.209812 4.257045 -30.593791 -3.993346 -1.928435 -20.766085 
-0.024924 0.066638 0.683322 8.177397 3.944838 93.965186 4.075189 -0.884616 16.634766 -31.133493 -16.483529 72.834668 -3.748057 2.237106 -29.353044 0.000000 -0.000000 0.000000 -18.321420 8.427147 -85.365325 -7.431519 -29.902642 108.061930 1.619908 -7.146201 -33.897117 0.000000 -0.000000 0.000000 1.321345 -12.316337 37.620539 -1.002739 8.124256 -21.180585 0.251523 -1.961905 6.371984 -8.701763 4.030858 0.128336 -10.419041 -3.665879 -5.706953 -15.432963 -3.483398 -9.656052 -15.362017 -13.981894 -13.728743 20.546387 4.106043 -56.468224 28.247263 -0.490938 3.623482 14.681882 4.076997 -9.253083 18.422481 -1.118019 -2.434201 -3.803200 0.435682 -32.008452 -9.143745 -1.244258 -15.897606 
-0.023507 0.063404 0.680586 8.529972 3.699400 93.424848 4.734593 -0.862791 17.391351 -32.246771 -17.234601 73.045624 -4.638631 1.388627 -28.555105 0.000000 -0.000000 0.000000 -18.284679 8.337875 -85.260010 -8.374857 -29.773268 109.591043 1.826844 -7.954445 -33.743835 0.000000 -0.000000 0.000000 0.883765 -12.496549 38.229973 -1.492192 7.862404 -22.458273 -0.139533 -1.792766 7.537937 -8.708934 4.597843 0.502462 -10.070077 -4.633027 -5.447379 -13.916912 -2.495264 -10.626713 -12.868211 -13.593151 -14.964036 21.137672 5.751919 -57.287032 36.965382 -6.351184 8.030481 14.162117 2.792690 -9.605817 16.582052 -3.229682 -3.977020 -3.171802 -2.923242 -33.089765 -20.026873 -0.364804 -9.351442 
-0.022083 0.061820 0.680720 9.116016 3.528901 93.310289 5.093729 -0.874224 17.412052 -33.051821 -18.155095 73.526433 -5.269875 0.784905 -28.331824 0.000000 -0.000000 0.000000 -18.094445 7.988550 -85.044464 -9.631322 -29.687841 110.533457 2.274070 -8.938831 -33.364684 0.000000 -0.000000 0.000000 0.668664 -12.582014 38.428453 -1.872018 7.490196 -23.118505 -0.260690 -1.872224 7.958394 -8.505075 3.657252 3.139997 -10.536666 -4.748676 -7.108411 -13.220898 -1.741759 -10.123948 -10.037792 -12.534607 -16.925801 21.743048 5.460751 -56.354347 41.198570 -11.319946 9.886751 13.158815 1.510523 -8.646146 15.474744 -4.809321 -6.899439 -3.823486 -6.006603 -34.589619 -34.016097 2.020127 -2.711026 
-0.021637 0.061191 0.683025 9.661503 3.731534 93.623579 5.538639 -1.202776 17.202687 -33.670462 -19.191123 73.497883 -5.754350 0.392213 -28.383948 0.000000 -0.000000 0.000000 -17.543750 7.846316 -84.977262 -10.995166 -29.965868 110.714912 2.494692 -10.498511 -32.897656 0.000000 -0.000000 0.000000 0.593011 -12.771871 38.623362 -2.221496 7.177761 -24.398168 -0.804628 -1.508264 9.089698 -8.505401 5.557980 1.383841 -9.819731 -6.507568 -5.260245 -11.685417 -0.793656 -11.405264 -8.388191 -11.935645 -17.036272 21.658718 4.523312 -54.033311 43.412530 -14.666938 10.904631 13.380564 0.229168 -9.092329 14.013281 -6.391021 -8.507461 -5.288490 -8.507296 -35.313938 -44.698654 4.988908 1.389374 
-0.021876 0.061333 0.687848 10.122588 4.298380 93.994090 6.049713 -2.071139 17.108260 -34.210520 -20.319518 72.854814 -6.257872 0.009422 -28.905172 0.000000 -0.000000 0.000000 -16.798141 7.976580 -84.574574 -12.209935 -30.675370 110.049824 2.541463 -12.026869 -32.479447 0.000000 -0.000000 0.000000 0.442118 -12.513697 38.395113 -2.189479 7.034374 -24.086980 -0.606996 -1.526216 8.619893 -8.274248 5.413386 2.997984 -9.822680 -6.262484 -6.264776 -10.486352 -0.392342 -10.785554 -7.268724 -11.656399 -18.226253 21.614122 4.604540 -52.697962 44.192359 -16.077198 11.122993 12.042131 -0.843314 -7.821049 14.190694 -7.656985 -10.527234 -6.689206 -10.146589 -35.450016 -50.093894 6.540828 2.872192 
-0.022516 0.062241 0.694191 10.504096 4.993796 94.806170 6.286772 -2.998168 16.327415 -34.326063 -21.362967 72.257695 -6.383888 0.078839 -28.830528 0.000000 -0.000000 0.000000 -16.111900 8.254391 -84.369460 -12.219680 -31.194997 108.134963 2.341419 -13.050455 -32.386700 0.000000 -0.000000 0.000000 0.499620 -12.324462 37.883905 -2.201387 7.020229 -24.007969 -0.625399 -1.713978 8.751174 -8.054959 5.757822 2.721375 -9.798344 -6.251111 -6.291978 -9.583372 -0.009160 -10.802173 -6.566115 -11.472029 -18.493623 21.506951 4.787515 -52.354156 44.477163 -17.002505 11.884800 11.458338 -1.680069 -7.526421 14.037932 -8.483859 -11.008879 -7.054230 -10.722192 -35.802795 -51.687400 7.052605 3.360818 
-0.023035 0.063457 0.702990 10.760111 5.739957 95.496211 6.288621 -3.876696 15.790406 -34.208905 -22.507330 71.343358 -6.475993 0.532624 -28.789371 0.000000 -0.000000 0.000000 -15.333021 8.754567 -83.723872 -11.953884 -31.714075 105.692684 2.290937 -13.919273 -32.121436 0.000000 -0.000000 0.000000 0.430094 -12.077299 37.615812 -2.175639 6.989939 -23.875475 -0.562488 -1.869276 8.719232 -7.909658 6.202387 2.487334 -9.312917 -6.505677 -6.233754 -9.001420 0.093273 -10.835195 -6.443595 -11.429499 -18.310625 21.384430 4.915037 -51.935851 44.764422 -17.305202 11.943322 11.383773 -2.060305 -7.300784 14.263773 -9.006049 -10.839089 -7.125864 -10.429856 -35.587280 -52.606070 7.228926 3.325599 
-0.023372 0.064579 0.713994 10.952960 6.377377 96.175008 6.226582 -4.584926 15.408579 -33.283520 -23.517824 69.636698 -6.369087 1.044264 -28.015171 0.000000 -0.000000 0.000000 -14.343927 9.246097 -82.774834 -11.285196 -32.039760 102.699679 2.255076 -14.695537 -31.602108 0.000000 -0.000000 0.000000 0.007132 -11.695978 37.245799 -1.943177 6.862014 -23.525425 -0.417238 -2.045613 8.608397 -7.464553 6.552233 1.565098 -8.646148 -6.965002 -5.973291 -9.164530 0.382062 -10.514749 -6.686291 -12.020021 -17.876515 21.448516 4.404589 -51.854531 45.709498 -16.947671 11.335797 12.182127 -2.195018 -7.328022 14.642694 -8.375421 -9.930085 -7.625373 -10.332101 -35.490371 -53.418294 7.284784 3.319358 
-0.023150 0.065759 0.726624 11.209316 6.843082 97.040917 6.179169 -5.385640 15.331565 -31.871620 -24.628775 66.699433 -6.010632 1.905545 -27.882134 0.000000 -0.000000 0.000000 -13.511874 9.677666 -81.690385 -10.374484 -32.298932 99.172060 2.286924 -15.375177 -31.106805 0.000000 -0.000000 0.000000 -0.571940 -11.391768 36.443962 -1.608575 6.718552 -22.673144 -0.146632 -2.307079 8.094857 -6.676152 6.696465 0.444262 -8.639527 -6.719675 -5.194157 -9.952931 0.523216 -10.081699 -7.333844 -13.156367 -17.627671 21.902063 3.973885 -51.550777 46.230959 -16.692570 11.036066 13.195327 -2.116048 -7.250557 15.393709 -6.959523 -8.947302 -7.973125 -10.226415 -35.688109 -54.454121 7.384633 2.994952 
-0.022429 0.067153 0.740478 11.669281 7.437926 98.312241 6.339243 -6.257517 15.124328 -30.563400 -26.327238 63.363305 -5.715972 2.844581 -27.830016 0.000000 -0.000000 0.000000 -12.669483 10.167904 -80.716905 -9.300902 -32.535332 94.868710 2.143743 -16.299574 -30.926949 0.000000 -0.000000 0.000000 -0.724866 -11.420243 35.190526 -1.318888 6.614715 -22.050657 -0.003636 -2.566021 7.666222 -6.002792 6.826613 -0.958370 -8.569280 -6.345794 -4.765880 -10.976430 0.356377 -9.675025 -8.602813 -14.799168 -17.099534 22.485856 4.272050 -50.709900 46.896581 -16.458697 10.763515 14.419579 -1.825188 -7.199154 16.547278 -5.104066 -8.006953 -8.160523 -9.841601 -35.678867 -54.872338 6.967687 1.974360 
-0.020526 0.067754 0.756421 12.171381 7.874353 99.767704 6.114272 -7.525541 15.090076 -28.949634 -27.965674 59.023050 -5.229990 4.315150 -27.027457 0.000000 -0.000000 0.000000 -12.197691 10.746221 -79.640659 -7.895711 -32.841663 90.074776 2.108202 -17.645310 -30.546905 0.000000 -0.000000 0.000000 -0.695538 -11.523617 33.667456 -1.009077 6.568630 -21.604700 0.072862 -3.131404 7.904482 -5.282868 7.141078 -4.703025 -9.382456 -5.549375 -3.067489 -12.573239 0.351480 -9.750862 -10.372396 -16.880278 -15.902385 22.756674 4.747239 -50.817951 48.348201 -16.218667 10.168868 16.179071 -1.353781 -8.483699 17.314573 -2.511608 -6.085439 -8.418790 -9.849675 -36.941664 -54.977059 6.772387 1.508276 
